<svg width="81" height="17" viewBox="0 0 81 17" fill="none" xmlns="http://www.w3.org/2000/svg">
<path d="M0.226562 16V0.296875H3.48438V13.0703H11.2188V16H0.226562ZM19.7969 16.3516C18.9219 16.3516 18.1016 16.2031 17.3359 15.9062C16.5703 15.5938 15.8906 15.1641 15.2969 14.6172C14.7188 14.0703 14.2656 13.4219 13.9375 12.6719C13.6094 11.9219 13.4453 11.1016 13.4453 10.2109C13.4453 9.05469 13.7031 8 14.2188 7.04688C14.7344 6.07812 15.4453 5.30469 16.3516 4.72656C17.2578 4.14844 18.2891 3.85938 19.4453 3.85938C20.6016 3.85938 21.5938 4.10938 22.4219 4.60938C23.2656 5.10938 23.9062 5.80469 24.3438 6.69531C24.7969 7.57031 25.0234 8.58594 25.0234 9.74219V11.0078H16.1875V8.96875H22.1641C22.1328 8.39062 21.9766 7.92188 21.6953 7.5625C21.4141 7.1875 21.0703 6.91406 20.6641 6.74219C20.2578 6.55469 19.8281 6.46094 19.375 6.46094C18.7656 6.46094 18.2344 6.61719 17.7812 6.92969C17.3438 7.24219 17 7.67969 16.75 8.24219C16.5 8.80469 16.375 9.46094 16.375 10.2109C16.375 10.8828 16.5234 11.4766 16.8203 11.9922C17.1172 12.5078 17.5312 12.9141 18.0625 13.2109C18.6094 13.5078 19.2266 13.6562 19.9141 13.6562C20.7891 13.6562 21.5703 13.4844 22.2578 13.1406C22.9609 12.7969 23.5156 12.4453 23.9219 12.0859V14.8516C23.6875 15.0703 23.3594 15.2969 22.9375 15.5312C22.5156 15.7656 22.0312 15.9609 21.4844 16.1172C20.9531 16.2734 20.3906 16.3516 19.7969 16.3516ZM30.9766 16.3516C30.4453 16.3516 29.9219 16.2891 29.4062 16.1641C28.8906 16.0547 28.4141 15.9062 27.9766 15.7188C27.5547 15.5312 27.2109 15.3438 26.9453 15.1562V12.5547C27.2422 12.7578 27.6016 12.9531 28.0234 13.1406C28.4453 13.3281 28.8828 13.4844 29.3359 13.6094C29.7891 13.7188 30.2031 13.7734 30.5781 13.7734C31.1719 13.7734 31.625 13.6641 31.9375 13.4453C32.2656 13.2266 32.4297 12.9297 32.4297 12.5547C32.4297 12.2578 32.2969 12.0234 32.0312 11.8516C31.7656 11.6797 31.375 11.5078 30.8594 11.3359L29.4062 10.8203C28.5156 10.5234 27.8906 10.1016 27.5312 9.55469C27.1875 9.00781 27.0156 8.35938 27.0156 7.60938C27.0156 6.85938 27.2031 6.21094 27.5781 5.66406C27.9688 5.10156 28.5078 4.66406 29.1953 4.35156C29.8984 4.02344 30.6875 3.85938 31.5625 3.85938C32.2969 3.85938 32.9766 3.96875 33.6016 4.1875C34.2422 4.39062 34.7266 4.64062 35.0547 4.9375V7.5625C34.6953 7.3125 34.2422 7.07031 33.6953 6.83594C33.1641 6.60156 32.6016 6.48438 32.0078 6.48438C31.4453 6.48438 31 6.60938 30.6719 6.85938C30.3438 7.10938 30.1797 7.40625 30.1797 7.75C30.1797 8 30.2734 8.23438 30.4609 8.45312C30.6641 8.65625 31.0234 8.83594 31.5391 8.99219L32.875 9.4375C33.7969 9.70312 34.4766 10.1016 34.9141 10.6328C35.3516 11.1484 35.5703 11.7891 35.5703 12.5547C35.5703 13.2734 35.3594 13.9219 34.9375 14.5C34.5312 15.0781 33.9766 15.5312 33.2734 15.8594C32.5859 16.1875 31.8203 16.3516 30.9766 16.3516ZM41.3359 16.3516C40.8047 16.3516 40.2812 16.2891 39.7656 16.1641C39.25 16.0547 38.7734 15.9062 38.3359 15.7188C37.9141 15.5312 37.5703 15.3438 37.3047 15.1562V12.5547C37.6016 12.7578 37.9609 12.9531 38.3828 13.1406C38.8047 13.3281 39.2422 13.4844 39.6953 13.6094C40.1484 13.7188 40.5625 13.7734 40.9375 13.7734C41.5312 13.7734 41.9844 13.6641 42.2969 13.4453C42.625 13.2266 42.7891 12.9297 42.7891 12.5547C42.7891 12.2578 42.6562 12.0234 42.3906 11.8516C42.125 11.6797 41.7344 11.5078 41.2188 11.3359L39.7656 10.8203C38.875 10.5234 38.25 10.1016 37.8906 9.55469C37.5469 9.00781 37.375 8.35938 37.375 7.60938C37.375 6.85938 37.5625 6.21094 37.9375 5.66406C38.3281 5.10156 38.8672 4.66406 39.5547 4.35156C40.2578 4.02344 41.0469 3.85938 41.9219 3.85938C42.6562 3.85938 43.3359 3.96875 43.9609 4.1875C44.6016 4.39062 45.0859 4.64062 45.4141 4.9375V7.5625C45.0547 7.3125 44.6016 7.07031 44.0547 6.83594C43.5234 6.60156 42.9609 6.48438 42.3672 6.48438C41.8047 6.48438 41.3594 6.60938 41.0312 6.85938C40.7031 7.10938 40.5391 7.40625 40.5391 7.75C40.5391 8 40.6328 8.23438 40.8203 8.45312C41.0234 8.65625 41.3828 8.83594 41.8984 8.99219L43.2344 9.4375C44.1562 9.70312 44.8359 10.1016 45.2734 10.6328C45.7109 11.1484 45.9297 11.7891 45.9297 12.5547C45.9297 13.2734 45.7188 13.9219 45.2969 14.5C44.8906 15.0781 44.3359 15.5312 43.6328 15.8594C42.9453 16.1875 42.1797 16.3516 41.3359 16.3516ZM53.9688 16.3516C53.1094 16.3516 52.2969 16.1953 51.5312 15.8828C50.7812 15.5547 50.1094 15.1094 49.5156 14.5469C48.9219 13.9844 48.4609 13.3281 48.1328 12.5781C47.8047 11.8125 47.6406 10.9922 47.6406 10.1172C47.6406 9.24219 47.8047 8.42969 48.1328 7.67969C48.4609 6.91406 48.9219 6.25 49.5156 5.6875C50.1094 5.10938 50.7812 4.66406 51.5312 4.35156C52.2969 4.02344 53.1094 3.85938 53.9688 3.85938C54.8281 3.85938 55.6406 4.02344 56.4062 4.35156C57.1719 4.66406 57.8438 5.10938 58.4219 5.6875C59.0156 6.25 59.4766 6.91406 59.8047 7.67969C60.1484 8.42969 60.3203 9.24219 60.3203 10.1172C60.3203 10.9922 60.1484 11.8125 59.8047 12.5781C59.4766 13.3281 59.0156 13.9844 58.4219 14.5469C57.8438 15.1094 57.1719 15.5547 56.4062 15.8828C55.6406 16.1953 54.8281 16.3516 53.9688 16.3516ZM53.9688 13.4688C54.5469 13.4688 55.0703 13.3438 55.5391 13.0938C56.0234 12.8281 56.4141 12.4453 56.7109 11.9453C57.0078 11.4297 57.1562 10.8203 57.1562 10.1172C57.1562 9.38281 57.0078 8.76562 56.7109 8.26562C56.4141 7.76562 56.0234 7.39062 55.5391 7.14062C55.0703 6.875 54.5469 6.74219 53.9688 6.74219C53.4219 6.74219 52.8984 6.875 52.3984 7.14062C51.9141 7.39062 51.5234 7.76562 51.2266 8.26562C50.9453 8.76562 50.8047 9.38281 50.8047 10.1172C50.8047 10.8203 50.9453 11.4297 51.2266 11.9453C51.5234 12.4453 51.9141 12.8281 52.3984 13.0938C52.8984 13.3438 53.4219 13.4688 53.9688 13.4688ZM70.9609 16L70.9375 9.13281C70.9375 8.33594 70.7422 7.74219 70.3516 7.35156C69.9766 6.96094 69.4531 6.76562 68.7812 6.76562C68.25 6.76562 67.7578 6.9375 67.3047 7.28125C66.8516 7.625 66.4531 8.03125 66.1094 8.5V5.85156C66.3594 5.52344 66.6562 5.21094 67 4.91406C67.3594 4.60156 67.7656 4.35156 68.2188 4.16406C68.6719 3.96094 69.1641 3.85938 69.6953 3.85938C70.5078 3.85938 71.2344 4.03906 71.875 4.39844C72.5156 4.75781 73.0156 5.30469 73.375 6.03906C73.75 6.75781 73.9375 7.65625 73.9375 8.73438V16H70.9609ZM63.1328 16V4.16406H66.1094V16H63.1328Z" fill="#171100"/>
<path d="M78.7656 16.4219C78.25 16.4219 77.8047 16.2422 77.4297 15.8828C77.0703 15.5078 76.8906 15.0703 76.8906 14.5703C76.8906 14.0391 77.0703 13.5938 77.4297 13.2344C77.8047 12.8594 78.25 12.6719 78.7656 12.6719C79.2812 12.6719 79.7188 12.8594 80.0781 13.2344C80.4531 13.5938 80.6406 14.0391 80.6406 14.5703C80.6406 15.0703 80.4531 15.5078 80.0781 15.8828C79.7188 16.2422 79.2812 16.4219 78.7656 16.4219Z" fill="#FFB900"/>
</svg>
